<?xml version="1.0" encoding="utf-8"?>
<!-- Generator: Adobe Illustrator 24.0.1, SVG Export Plug-In . SVG Version: 6.00 Build 0)  -->
<svg version="1.1" id="Слой_1" xmlns="http://www.w3.org/2000/svg" xmlns:xlink="http://www.w3.org/1999/xlink" x="0px" y="0px"
	 viewBox="0 0 88.5 129.7" style="enable-background:new 0 0 88.5 129.7;" xml:space="preserve">
<style type="text/css">
	.st0{fill:url(#SVGID_1_);}
</style>
<g>
	<linearGradient id="SVGID_1_" gradientUnits="userSpaceOnUse" x1="44.2527" y1="0" x2="44.2527" y2="129.7266">
		<stop  offset="1.633285e-03" style="stop-color:#956321"/>
		<stop  offset="9.706829e-02" style="stop-color:#9A6826"/>
		<stop  offset="0.2809" style="stop-color:#9D6D29"/>
		<stop  offset="0.5666" style="stop-color:#B4822B"/>
		<stop  offset="0.8189" style="stop-color:#D79A35"/>
		<stop  offset="0.9996" style="stop-color:#D09F2A"/>
	</linearGradient>
	<path class="st0" d="M88.5,129.7h-86V115l42.6-46.5c6.2-6.9,10.5-12.6,13.1-17.2c2.6-4.6,3.9-9.2,3.9-13.8c0-6.1-1.7-11-5.1-14.8
		c-3.4-3.7-8-5.6-13.8-5.6c-6.9,0-12.3,2.1-16.1,6.3s-5.7,10-5.7,17.3H0C0,33,1.8,26,5.3,19.7c3.5-6.2,8.6-11.1,15.2-14.5
		C27.1,1.7,34.7,0,43.3,0c12.4,0,22.2,3.1,29.4,9.4c7.2,6.2,10.8,14.9,10.8,25.9c0,6.4-1.8,13.1-5.4,20.1c-3.6,7-9.5,15-17.7,23.9
		l-31.3,33.5h59.4V129.7z"/>
</g>
</svg>
