<?xml version="1.0" encoding="utf-8"?>
<!-- Generator: Adobe Illustrator 24.0.1, SVG Export Plug-In . SVG Version: 6.00 Build 0)  -->
<svg version="1.1" id="Слой_1" xmlns="http://www.w3.org/2000/svg" xmlns:xlink="http://www.w3.org/1999/xlink" x="0px" y="0px"
	 viewBox="0 0 475.61 509.19" style="enable-background:new 0 0 475.61 509.19;" xml:space="preserve">
<style type="text/css">
	.st0{fill:#CE87E8;}
</style>
<path class="st0" d="M289.1,0H186.51C83.67,0,0,83.67,0,186.51v71.29c0,49.14,19.92,96.5,54.31,131.25v94.18
	c0,9.27,4.95,17.83,12.97,22.47c4.02,2.32,8.5,3.48,12.98,3.48c4.48,0,8.95-1.15,12.96-3.47l106.52-61.41h89.36
	c102.84,0,186.51-83.67,186.51-186.51v-71.29C475.61,83.67,391.94,0,289.1,0z M435.89,260.72c0,78.25-64.02,142.27-142.27,142.27
	h-83.58L78.97,483.23v-124.7c-24.28-25.55-39.25-60.01-39.25-97.81v-77.14c0-78.25,64.02-142.27,142.27-142.27h111.64
	c78.25,0,142.27,64.02,142.27,142.27V260.72z"/>
<path class="st0" d="M210.67,114.98c-0.51-0.5-0.94-1.1-1.28-1.78c-1.68-3.37-0.3-7.46,3.06-9.14
	c36.1-17.98,83.88-7.97,116.19,24.33c32.3,32.3,42.31,80.06,24.35,116.14c-1.68,3.37-5.77,4.74-9.14,3.06
	c-3.37-1.68-4.74-5.77-3.06-9.13c15.39-30.92,6.43-72.22-21.78-100.44c-28.22-28.22-69.54-37.17-100.48-21.76
	C215.84,117.6,212.68,116.99,210.67,114.98z"/>
<path class="st0" d="M226.15,144.98c-0.54-0.55-1.01-1.2-1.35-1.93c-1.6-3.41-0.13-7.46,3.28-9.06
	c24.81-11.61,56.13-4.76,77.93,17.03c21.79,21.8,28.65,53.09,17.06,77.89c-1.6,3.41-5.65,4.88-9.06,3.29
	c-3.4-1.59-4.88-5.65-3.29-9.06c9.18-19.62,3.41-44.72-14.34-62.48s-42.87-23.51-62.51-14.33
	C231.18,147.58,228.12,146.95,226.15,144.98z"/>
<path class="st0" d="M241.46,174.93c-0.66-0.66-1.2-1.46-1.55-2.4c-1.34-3.52,0.43-7.45,3.95-8.79c13.09-4.97,28.62-1.11,39.57,9.84
	s14.82,26.48,9.86,39.55c-1.33,3.52-5.27,5.29-8.78,3.96c-3.52-1.34-5.29-5.27-3.96-8.79c3.01-7.95,0.29-18.02-6.76-25.08
	c-7.05-7.05-17.14-9.76-25.1-6.74C246.11,177.47,243.3,176.77,241.46,174.93z"/>
<path class="st0" d="M192.26,162.98l-47.31-47.31c-6.01-6.01-14.5-7.42-18.87-3.05l-4.57,4.58c-22.29,22.28-26.41,54.77-8.31,76.85
	c22.47,27.39,47.47,55.14,71.51,78.25c23.12,24.04,50.87,49.04,78.25,71.51c22.08,18.11,54.57,13.98,76.85-8.3l4.58-4.58
	c4.37-4.37,2.95-12.86-3.06-18.87l-47.31-47.31c-11.23-11.23-18.63-9.68-23-5.31c0,0-5.96,6.06-7.05,7.32v-0.02
	c-4.25,4.26-15.03,5.21-24.76-0.88c-8.86-5.55-18.03-13.62-26.27-21.78c-8.16-8.24-16.22-17.41-21.78-26.27
	c-6.09-9.73-5.14-20.51-0.88-24.76h-0.02c1.25-1.09,7.32-7.05,7.32-7.05C201.94,181.62,203.49,174.21,192.26,162.98z"/>
</svg>
